<svg width="47" height="39" viewBox="0 0 47 39" fill="none" xmlns="http://www.w3.org/2000/svg">
<path d="M13.3346 14.3334C11.4937 14.3334 10.0013 15.8258 10.0013 17.6668C10.0013 19.5077 11.4937 21.0001 13.3346 21.0001C15.1756 21.0001 16.668 19.5077 16.668 17.6668C16.668 15.8258 15.1756 14.3334 13.3346 14.3334Z" fill="#0A071B"/>
<path d="M24.0013 14.3334C22.1604 14.3334 20.668 15.8258 20.668 17.6668C20.668 19.5077 22.1604 21.0001 24.0013 21.0001C25.8423 21.0001 27.3346 19.5077 27.3346 17.6668C27.3346 15.8258 25.8423 14.3334 24.0013 14.3334Z" fill="#0A071B"/>
<path d="M31.3346 17.6668C31.3346 15.8258 32.827 14.3334 34.668 14.3334C36.5089 14.3334 38.0013 15.8258 38.0013 17.6668C38.0013 19.5077 36.5089 21.0001 34.668 21.0001C32.827 21.0001 31.3346 19.5077 31.3346 17.6668Z" fill="#0A071B"/>
<path fill-rule="evenodd" clip-rule="evenodd" d="M34.9366 1.24754C27.7521 0.634852 20.53 0.599295 13.3398 1.14122L12.8245 1.18005C5.96772 1.69685 0.667969 7.41106 0.667969 14.2873V37.0001C0.667969 37.7038 1.03774 38.3557 1.6417 38.7167C2.24565 39.0778 2.99492 39.0949 3.61474 38.7618L14.0435 33.1573C14.5286 32.8966 15.0707 32.7601 15.6215 32.7601H39.5585C42.5774 32.7601 45.1646 30.6017 45.7058 27.6317C46.8025 21.6124 46.8892 15.4525 45.9621 9.40477L45.689 7.62256C45.1916 4.3779 42.5372 1.89573 39.2665 1.6168L34.9366 1.24754ZM13.6404 5.1299C20.6174 4.60405 27.6253 4.63856 34.5967 5.23308L38.9267 5.60234C40.3569 5.72431 41.5176 6.80975 41.7351 8.22862L42.0083 10.0108C42.868 15.6196 42.7877 21.3324 41.7706 26.9147C41.5758 27.9834 40.6449 28.7601 39.5585 28.7601H15.6215C14.4099 28.7601 13.2172 29.0603 12.15 29.6338L4.66797 33.6548V14.2873C4.66797 9.50359 8.35495 5.52827 13.1252 5.16874L13.6404 5.1299Z" fill="#0A071B"/>
</svg>
