<svg width="48" height="48" viewBox="0 0 48 48" fill="none" xmlns="http://www.w3.org/2000/svg">
<path d="M26.0013 10.667C26.0013 9.56242 25.1059 8.66699 24.0013 8.66699C22.8967 8.66699 22.0013 9.56242 22.0013 10.667V24.0003C22.0013 24.6899 22.3565 25.3308 22.9413 25.6963L30.9413 30.6963C31.878 31.2817 33.1119 30.997 33.6973 30.0603C34.2827 29.1237 33.998 27.8898 33.0613 27.3043L26.0013 22.8918V10.667Z" fill="#0A071B"/>
<path fill-rule="evenodd" clip-rule="evenodd" d="M24.0013 0.666992C11.1147 0.666992 0.667969 11.1137 0.667969 24.0003C0.667969 36.887 11.1147 47.3337 24.0013 47.3337C36.8879 47.3337 47.3346 36.887 47.3346 24.0003C47.3346 11.1137 36.8879 0.666992 24.0013 0.666992ZM4.66797 24.0003C4.66797 13.3228 13.3238 4.66699 24.0013 4.66699C34.6788 4.66699 43.3346 13.3228 43.3346 24.0003C43.3346 34.6778 34.6788 43.3337 24.0013 43.3337C13.3238 43.3337 4.66797 34.6778 4.66797 24.0003Z" fill="#0A071B"/>
</svg>
