<svg width="437" height="766" viewBox="0 0 437 766" fill="none" xmlns="http://www.w3.org/2000/svg">
<path d="M425.028 367.181C368.203 401.021 298.881 361.149 302.138 360.455C409.563 337.097 419.056 269.324 419.056 269.324C397.609 216.923 339.151 233.792 339.151 233.792C337.459 308.156 248.95 312.343 248.95 312.343C243.265 288.215 243.578 231.88 243.578 231.88C216.752 213.125 211.32 221.085 211.32 221.085C219.78 146.637 253.849 122.636 253.849 122.636C259.525 117.349 284.897 105.463 297.925 103.923L298.391 105.987C298.391 105.987 285.218 138.88 310.463 141.045C331.706 142.907 343.778 116.757 347.069 108.457C374.691 117.019 401.053 136.181 418.59 168.413C460.078 244.672 425.028 367.181 425.028 367.181Z" fill="#2E2E2E"/>
<path d="M431.171 335.092L569.246 426.46C596.022 444.175 592.579 484.495 563.214 497.414L401.628 568.529C386.601 575.141 370.125 577.774 353.785 576.175C337.446 574.577 321.792 568.799 308.331 559.4L246.277 516.017" stroke="black" stroke-width="4.21" stroke-miterlimit="10"/>
<path d="M431.173 364.556L426.528 361.477L569.274 455.907C596.05 473.622 592.606 513.943 563.242 526.861L401.656 597.976C386.628 604.587 370.152 607.221 353.813 605.622C337.473 604.023 321.82 598.247 308.359 588.848L229.461 532.656" stroke="black" stroke-width="4.21" stroke-miterlimit="10"/>
<path d="M551.328 492.371L402.813 557.741C389.002 563.816 373.86 566.235 358.844 564.765C343.827 563.295 329.442 557.987 317.071 549.349L260.16 509.367C267.996 503.362 276.776 498.702 286.141 495.577C309.6 487.609 332.495 478.064 354.667 467.008C371.498 458.682 386.283 446.741 397.964 432.039C409.647 417.337 417.937 400.237 422.245 381.96C425.223 369.312 427.837 356.52 429.978 343.661L560.685 430.063C585.286 446.34 578.307 480.51 551.328 492.371Z" fill="white"/>
<path d="M168.642 681.824C168.642 681.824 194.681 671.029 199.673 662.891C199.673 662.891 200.612 681.367 195.739 687.678C190.866 693.99 161.747 710.673 160.182 708.583C158.616 706.493 168.642 681.824 168.642 681.824Z" fill="white"/>
<path d="M88.4806 725.851C88.4806 725.851 93.2182 732.281 110.028 725.851C126.838 719.422 163.411 695.742 163.411 695.742C163.411 695.742 153.208 723.136 149.511 726.147C145.814 729.159 75.9682 763.371 75.9682 763.371C75.9682 763.371 44.7424 767.813 56.5102 745.605L88.4806 725.851Z" fill="white"/>
<path d="M189.003 367.925C150.51 382.907 109.775 418.11 121.492 515.594L124.749 540.923" stroke="black" stroke-width="4.21" stroke-miterlimit="10"/>
<path d="M188.945 304.262C195.24 295.278 200.925 285.566 204.41 275.109C207.896 264.653 208.073 253.325 209.046 242.327C211.635 212.835 215.645 188.445 227.024 160.975C236.88 137.203 266.65 106.577 296.269 103.676L298.934 103.447" stroke="black" stroke-width="4.21" stroke-miterlimit="10"/>
<path d="M263.393 365.766C263.249 365.352 263.105 364.963 262.953 364.557" stroke="black" stroke-width="4.21" stroke-miterlimit="10"/>
<path d="M248.951 310.514C247.495 301.961 246.413 293.67 245.567 285.802C245.569 285.654 245.552 285.506 245.516 285.362C241.083 241.43 245.567 209.468 245.567 209.468" stroke="black" stroke-width="4.21" stroke-miterlimit="10"/>
<path d="M352.424 43.8742L345.656 46.5141C345.656 46.7256 345.656 49.3651 345.369 53.0621C345.054 57.4774 344.352 61.8563 343.271 66.1498C343.871 63.2226 344.743 56.2685 340.919 51.4294C340.86 51.3304 340.792 51.2365 340.716 51.1502C338.178 48.0961 335.048 49.3059 332.535 51.404C330.8 52.8718 329.285 54.5816 328.034 56.48C328.472 50.8279 327.459 45.158 325.09 40.0079C323.545 36.4948 321.496 33.2259 319.007 30.3043C322.84 43.5019 317.924 52.14 317.924 52.14C304.938 55.1941 295.928 54.5426 289.211 53.3836C283.551 48.1046 285.514 29.0945 285.514 29.0945C279.821 33.7475 281.191 51.7508 281.191 51.7508C280.464 47.053 280.553 42.2646 281.453 37.5968C278.625 41.5965 276.992 46.317 276.741 51.2094L276.64 51.1586C276.247 51.058 275.861 50.9361 275.481 50.7949C274.784 50.4277 274.108 50.0208 273.459 49.5766L269.711 47.0386C275.371 18.1642 295.159 0.00906038 325.733 5.33886C327.729 5.68284 329.693 6.19222 331.604 6.86166C351.748 17.3605 352.424 43.8742 352.424 43.8742Z" fill="white"/>
<path d="M177.944 325.082L170.237 301.884C170.066 301.344 169.761 300.856 169.35 300.467C168.938 300.078 168.434 299.8 167.885 299.659C167.817 299.659 167.741 299.659 167.665 299.608C167.589 299.558 167.572 299.608 167.521 299.608C167.344 299.597 167.166 299.597 166.988 299.608C166.133 299.612 165.312 299.938 164.687 300.522C164.061 301.1 163.562 301.801 163.22 302.582C162.878 303.362 162.7 304.205 162.699 305.057C162.7 305.723 162.806 306.386 163.012 307.019C164.704 311.918 167.716 320.759 169.146 324.785" fill="white"/>
<path d="M176.202 325.084L167.895 299.662C167.827 299.662 167.751 299.662 167.675 299.611C167.599 299.56 167.582 299.611 167.531 299.611L163.174 298.765C160.848 298.333 158.521 297.868 156.195 297.437C153.403 296.878 150.594 296.413 147.811 295.745C147.153 295.559 146.478 295.445 145.797 295.406C144.939 295.404 144.114 295.735 143.496 296.328C142.865 296.905 142.362 297.609 142.019 298.393C141.676 299.177 141.503 300.025 141.508 300.88C141.504 301.539 141.609 302.194 141.821 302.817C143.691 308.299 147.252 318.671 148.386 321.818L176.202 325.084Z" fill="white"/>
<path d="M340.463 209.459C339.617 218.875 339.177 230.27 338.881 244.593C338.881 275.049 305.21 300.268 275.287 306.038L220.415 318.432C213.165 319.836 206.744 315.31 201.702 312.307C196.516 309.219 191.203 305.539 187.464 302.807C182.083 298.873 171.72 302.037 173.843 311.419C174.301 313.203 175.165 314.857 176.366 316.253C177.568 317.648 179.076 318.748 180.772 319.464C181.727 319.893 182.711 320.254 183.716 320.547C184.091 320.641 184.423 320.856 184.663 321.159C184.903 321.461 185.036 321.834 185.042 322.22C185.048 322.605 184.926 322.983 184.695 323.292C184.465 323.602 184.138 323.826 183.767 323.931C179.012 325.572 170.307 326.545 156.263 321.393C138.269 314.769 136.873 355.834 161.475 362.982H161.568C184.232 369.835 208.622 368.955 232.048 367.974C258.649 366.966 285.119 363.737 311.183 358.321C324.44 355.512 338.06 352.594 350.192 346.595C371.088 336.266 386.147 324.422 400.47 305.987C416.544 285.32 423.405 258.205 427.279 232.783C431.712 203.698 425.587 179.138 409.996 154.105L409.42 153.191" stroke="black" stroke-width="4.21" stroke-miterlimit="10"/>
<path d="M177.944 325.082L170.237 301.884C170.066 301.344 169.761 300.856 169.35 300.467C168.938 300.078 168.434 299.8 167.885 299.659C167.817 299.659 167.741 299.659 167.665 299.608C167.589 299.558 167.572 299.608 167.521 299.608C167.344 299.597 167.166 299.597 166.988 299.608C166.133 299.612 165.312 299.938 164.687 300.522C164.061 301.1 163.562 301.801 163.22 302.582C162.878 303.362 162.7 304.205 162.699 305.057C162.7 305.723 162.806 306.386 163.012 307.019C164.704 311.918 167.716 320.759 169.146 324.785" stroke="black" stroke-width="4.21" stroke-miterlimit="10"/>
<path d="M167.895 299.662C167.827 299.662 167.751 299.662 167.675 299.611C167.599 299.56 167.582 299.611 167.531 299.611L163.174 298.765C160.848 298.333 158.521 297.868 156.195 297.437C153.403 296.878 150.594 296.413 147.811 295.745C147.153 295.559 146.478 295.445 145.797 295.406C144.939 295.404 144.114 295.735 143.496 296.328C142.865 296.905 142.362 297.609 142.019 298.393C141.676 299.177 141.503 300.025 141.508 300.88C141.504 301.539 141.609 302.194 141.821 302.817C143.691 308.299 147.252 318.671 148.386 321.818" stroke="black" stroke-width="4.21" stroke-miterlimit="10"/>
<path d="M274.109 50.377C274.109 61.375 276.25 71.8907 281.529 81.6028C285.759 89.4029 291.968 97.2623 300.851 99.8426C302.82 100.41 304.86 100.695 306.909 100.689C321.985 100.621 324.336 82.7618 324.336 82.7618" stroke="black" stroke-width="4.21" stroke-miterlimit="10"/>
<path d="M344.862 56.7578V56.8086C344.163 62.2653 342.962 67.6467 341.274 72.8826C339.258 79.1286 338.782 85.7697 339.887 92.2391L342.23 105.868C342.337 106.476 342.613 107.041 343.026 107.498C343.439 107.956 343.972 108.289 344.565 108.457C374.311 117.095 400.714 136.155 416.078 163.675C435.24 198.04 438.734 239.426 437.186 278.004C435.823 311.446 430.418 344.694 422.744 377.24C418.054 397.131 409.029 415.741 396.315 431.741C383.601 447.742 367.511 460.737 349.193 469.8C325.089 481.836 300.196 492.224 274.686 500.891C261.182 505.363 248.844 512.788 238.569 522.627C228.295 532.465 220.341 544.47 215.288 557.767L155.341 717.171C153.138 723.056 148.793 727.89 143.175 730.707L85.7317 759.564C78.4781 763.195 70.2034 764.245 62.2722 762.542C60.2164 762.098 58.3408 761.045 56.8916 759.521C55.4415 757.996 54.4847 756.071 54.1455 753.995C53.8054 751.919 54.0989 749.788 54.9872 747.881C55.8755 745.975 57.3171 744.38 59.125 743.304L88.4643 725.851L128.81 520.171C131.649 501.822 138.429 484.305 148.683 468.824C158.935 453.344 172.42 440.268 188.208 430.495C190.313 429.212 192.506 428.082 194.773 427.111L282.232 389.134" stroke="black" stroke-width="4.21" stroke-miterlimit="10"/>
<path d="M320.817 3.35033C316.142 2.23598 311.302 1.98937 306.537 2.62277C306.341 2.62709 306.147 2.64409 305.953 2.67353" stroke="black" stroke-width="4.21" stroke-miterlimit="10"/>
<path d="M299.633 103.945C299.633 103.945 284.159 139.418 311.832 141.169C336.662 142.76 345.774 109.021 345.774 109.021" stroke="black" stroke-width="4.21" stroke-miterlimit="10"/>
<path d="M342.917 67.4408C343.094 66.7894 345.759 57.1704 340.666 51.113C335.573 45.0557 328.67 55.4446 327.976 56.4851C329.33 41.5706 318.966 30.2596 318.966 30.2596C322.79 43.4656 317.867 52.0944 317.867 52.0944C298.942 56.5274 288.527 53.1519 281.142 51.6968C280.415 47.0015 280.507 42.2162 281.412 37.5521C278.577 41.5414 276.941 46.2587 276.7 51.1469H276.582C273.77 50.3999 271.105 49.1842 268.697 47.5514L264.949 45.0134C270.617 16.1483 290.397 -2.02379 320.971 3.30601C351.546 8.63581 352.4 43.7956 352.4 43.7956L345.59 46.4431C345.59 46.4431 345.649 58.0502 342.917 67.4408Z" stroke="black" stroke-width="4.21" stroke-miterlimit="10"/>
<path d="M285.973 65.9355V79.9707C285.974 80.1416 286.015 80.3099 286.094 80.4614C286.171 80.6137 286.284 80.7448 286.423 80.8455C286.561 80.9461 286.721 81.0121 286.89 81.04C287.058 81.0671 287.231 81.0544 287.394 81.0028C288.498 80.6373 289.512 80.0434 290.372 79.26" stroke="black" stroke-width="4.21" stroke-miterlimit="10"/>
<path d="M277.578 76.5904C282.006 74.8645 283.649 68.4755 281.249 62.32C278.849 56.1645 273.315 52.5741 268.888 54.3C264.46 56.0258 262.817 62.4148 265.217 68.5703C267.617 74.7258 273.151 78.3162 277.578 76.5904Z" stroke="black" stroke-width="4.21" stroke-miterlimit="10"/>
<path d="M304.219 80.606C308.646 78.8802 310.29 72.4912 307.89 66.3357C305.489 60.1802 299.956 56.5897 295.529 58.3156C291.101 60.0414 289.458 66.4304 291.858 72.5859C294.257 78.7414 299.792 82.3318 304.219 80.606Z" stroke="black" stroke-width="4.21" stroke-miterlimit="10"/>
<path d="M282.25 66.663C282.25 66.663 284.873 63.6682 290.372 67.1791" stroke="black" stroke-width="4.21" stroke-miterlimit="10"/>
<path d="M298.391 98.9561C298.391 98.9561 300.294 105.403 305.895 126.299" stroke="black" stroke-width="4.21" stroke-miterlimit="10"/>
<path d="M158.176 709.64L191.17 691.831C193.061 690.807 194.672 689.335 195.865 687.546C197.058 685.755 197.796 683.701 198.014 681.561C203.496 627.713 201.821 593.671 201.821 593.671" stroke="black" stroke-width="4.21" stroke-miterlimit="10"/>
<path d="M128.226 433.489L1.25 344.752" stroke="black" stroke-width="4.21" stroke-miterlimit="10"/>
<path d="M121.035 457.94L1.25 374.22" stroke="black" stroke-width="4.21" stroke-miterlimit="10"/>
</svg>
